<svg width="89" height="32" viewBox="0 0 89 32" fill="none" xmlns="http://www.w3.org/2000/svg">
<g id="claro-brand" clip-path="url(#clip0_2022_629)">
<path id="path4" d="M72.718 16.8693C70.9665 15.1308 68.8258 14.2938 66.4257 14.2938C64.0255 14.2938 62.0146 15.1308 60.2631 16.8693C58.5117 18.6077 57.6684 20.7325 57.6684 23.1791C57.6684 25.6258 58.5117 27.6862 60.2631 29.4246C61.9497 31.163 64.0904 32.0001 66.4257 32.0001C68.761 32.0001 70.9665 31.163 72.718 29.4246C74.4694 27.6862 75.2478 25.6258 75.2478 23.1791C75.2478 20.6037 74.4045 18.6077 72.718 16.8693ZM69.734 26.3985C68.8907 27.3642 67.7231 27.7506 66.4906 27.7506C65.258 27.7506 64.0904 27.2999 63.2471 26.3985C62.4038 25.4327 61.8849 24.3381 61.8849 23.1147C61.8849 21.7626 62.3389 20.6681 63.2471 19.831C64.0904 18.8653 65.258 18.4789 66.4906 18.4789C67.7879 18.4145 68.8907 18.8653 69.7989 19.831C70.6422 20.6681 71.0962 21.827 71.1611 23.1147C71.0314 24.3381 70.6422 25.4327 69.734 26.3985Z" fill="#CC0000"/>
<path id="path6" d="M10.8331 9.91546C7.84912 9.85107 5.25437 10.9456 3.1137 13.1348C1.0379 15.2595 0 17.7706 0 20.8611C0 23.8229 1.0379 26.4627 3.17857 28.5875C5.31924 30.7122 7.78426 31.7424 10.898 31.7424C13.363 31.7424 15.5685 31.0342 17.4497 29.5533C19.3309 28.0724 20.6283 26.0764 21.277 23.8229H16.8659C16.2821 24.9175 15.5036 25.8833 14.4657 26.5915C13.363 27.2998 12.1953 27.6217 10.8331 27.6217C8.95189 27.6217 7.33017 26.9134 6.09767 25.6257C4.73542 24.2736 4.08673 22.7283 4.08673 20.9255C4.08673 19.0583 4.73542 17.4487 6.09767 16.0965C7.39504 14.8088 8.95189 14.1006 10.8331 14.1006C12.1305 14.1006 13.2981 14.4869 14.4657 15.1951C15.5036 15.9034 16.2821 16.8692 16.8659 17.9637H21.277C20.6283 15.5815 19.3958 13.7143 17.4497 12.2334C15.5685 10.6237 13.2332 9.85107 10.8331 9.91546Z" fill="#CC0000"/>
<path id="path8" d="M37.6888 14.165C34.8346 14.1006 32.8236 14.8732 31.7209 16.3541C31.0073 17.3199 30.6181 18.4789 30.5532 20.0241H34.7697C34.8346 19.3159 35.094 18.8652 35.4184 18.5432C35.8725 17.9638 36.586 17.7062 37.6239 17.7706C38.4672 17.7062 39.1808 17.8994 39.6997 18.1569C40.1538 18.4145 40.4133 18.8652 40.4133 19.5734C40.4133 20.1529 40.0889 20.6036 39.4403 20.8612L36.1968 21.4406C34.7048 21.6982 33.4723 22.0201 32.5642 22.5352C31.0073 23.501 30.164 24.9819 30.2938 27.1066C30.2289 28.5875 30.7478 29.8109 31.7209 30.7123C32.5642 31.4205 33.7967 31.8068 35.2238 31.8712C37.4942 31.8068 39.3754 31.2274 40.6728 30.1328V31.8712H44.8892V19.4447C44.8892 17.3843 44.1757 15.9678 42.7486 15.2595C41.062 14.4869 39.5051 14.165 37.6888 14.165ZM39.4403 23.6942L40.2187 23.2434V24.9819C40.2187 26.3984 39.8295 27.4286 39.051 27.9437C38.2726 28.5231 37.3645 28.7807 36.4563 28.7807C35.8076 28.7807 35.3535 28.6519 34.9643 28.33C34.5751 27.9436 34.3156 27.4929 34.3156 26.6559C34.3156 25.8189 34.64 25.2394 35.3535 24.7887C35.7427 24.5312 36.4563 24.338 37.3645 24.2092L39.4403 23.6942Z" fill="#CC0000"/>
<path id="rect10" d="M27.6341 9.91553H23.4177V31.8069H27.6341V9.91553Z" fill="#CC0000"/>
<g id="g14">
<path id="path12" d="M54.5547 14.8089C53.4519 15.2596 52.414 15.9678 51.5707 17.1912V15.0664H47.5488V31.8068H51.7653V23.7586C51.7653 22.4064 51.895 21.3763 52.3491 20.8612C52.6735 20.2173 53.1275 19.7022 53.7762 19.3159C54.4898 18.8652 55.2682 18.6077 56.0466 18.6077L57.344 18.672V14.4225L56.2412 14.3582L54.5547 14.8089Z" fill="#CC0000"/>
</g>
<path id="rect16" d="M83.5122 2.06917L73.3351 12.182L76.0429 14.8666L86.22 4.75378L83.5122 2.06917Z" fill="#CC0000"/>
<path id="rect18" d="M68.9556 0H65.1283V10.8813H68.9556V0Z" fill="#CC0000"/>
<path id="rect20" d="M89 19.0583H77.8426V22.8571H89V19.0583Z" fill="#CC0000"/>
</g>
<defs>
<clipPath id="clip0_2022_629">
<rect width="89" height="32" fill="white"/>
</clipPath>
</defs>
</svg>
