<svg width="24" height="24" viewBox="0 0 24 24" fill="none" xmlns="http://www.w3.org/2000/svg">
<g id="Icon">
<path id="Vector" d="M6.48 7.52C6.48 6.45333 6.76 5.48 7.32 4.6C7.88 3.72 8.62667 3.04 9.56 2.56C10.4933 2.08 11.4933 1.89333 12.56 2C13.9467 2.16 15.12 2.78667 16.08 3.88C17.04 4.97333 17.52 6.24 17.52 7.68V12H18C18.5333 12 18.9867 12.1733 19.36 12.52C19.7333 12.8667 19.9467 13.3067 20 13.84V18C20 19.12 19.6133 20.0667 18.84 20.84C18.0667 21.6133 17.12 22 16 22H8C6.88 22 5.93333 21.6133 5.16 20.84C4.38667 20.0667 4 19.12 4 18V14C4 13.4667 4.2 13 4.6 12.6C5 12.2 5.46667 12 6 12H6.48V7.52ZM18 13.04L15.04 12.96L6 13.04C5.73333 13.04 5.50667 13.1333 5.32 13.32C5.13333 13.5067 5.04 13.7333 5.04 14V18C4.98667 18.8533 5.25333 19.5733 5.84 20.16C6.42667 20.7467 7.14667 21.04 8 21.04H16C16.8533 21.04 17.56 20.7467 18.12 20.16C18.68 19.5733 18.96 18.8533 18.96 18H19.04V14C19.04 13.7333 18.9333 13.5067 18.72 13.32C18.5067 13.1333 18.2667 13.04 18 13.04ZM12 14.96C12.16 14.96 12.28 15.0133 12.36 15.12C12.44 15.2267 12.48 15.36 12.48 15.52V18.48C12.48 18.64 12.44 18.76 12.36 18.84C12.28 18.92 12.16 18.96 12 18.96C11.84 18.96 11.72 18.92 11.64 18.84C11.56 18.76 11.52 18.64 11.52 18.48V15.52C11.52 15.36 11.56 15.2267 11.64 15.12C11.72 15.0133 11.84 14.96 12 14.96ZM12.48 3.04C11.5733 2.93333 10.7467 3.08 10 3.48C9.25333 3.88 8.65333 4.42667 8.2 5.12C7.74667 5.81333 7.52 6.61333 7.52 7.52V12H8.48V7.52C8.48 6.56 8.8 5.74667 9.44 5.08C10.08 4.41333 10.88 4.05333 11.84 4H12C12.96 4 13.7867 4.34667 14.48 5.04C15.1733 5.73333 15.52 6.56 15.52 7.52V12H16.48V7.68C16.48 6.56 16.12 5.54667 15.4 4.64C14.68 3.73333 13.76 3.2 12.64 3.04H12.48ZM12 5.04C11.3067 5.04 10.72 5.28 10.24 5.76C9.76 6.24 9.52 6.82667 9.52 7.52V12H14.48V7.52C14.48 6.82667 14.2533 6.24 13.8 5.76C13.3467 5.28 12.8 5.04 12.16 5.04H12Z" fill="#222222"/>
</g>
</svg>
