<svg width="91" height="24" viewBox="0 0 91 24" fill="none" xmlns="http://www.w3.org/2000/svg">
<g id="tim-brand" clip-path="url(#clip0_2022_650)">
<g id="g837">
<path id="path833" fill-rule="evenodd" clip-rule="evenodd" d="M11.4543 18.7819H1.37611C0.995156 18.7819 0.65085 18.9393 0.402061 19.1941C0.153272 19.4478 0 19.7977 0 20.185V22.596C0 22.9822 0.152161 23.3321 0.398729 23.5847C0.648629 23.8406 0.994046 23.9991 1.37611 23.9991H11.4543V18.7819ZM28.7577 19.1975C28.5089 18.9427 28.1623 18.7819 27.7803 18.7819H17.7021V23.9991H27.7803C28.1623 23.9991 28.5078 23.8406 28.7577 23.5835C29.0042 23.331 29.1564 22.9811 29.1564 22.596V20.185C29.1564 19.8 29.0042 19.4512 28.7577 19.1975ZM28.7577 9.80752C28.5089 9.55057 28.1623 9.39096 27.7803 9.39096H17.7021V14.6082H27.7803C28.1623 14.6082 28.5078 14.4474 28.7577 14.1916C29.0042 13.938 29.1564 13.5894 29.1564 13.2045V10.7935C29.1564 10.4097 29.0042 10.0611 28.7577 9.80752ZM11.4543 9.39096L1.37611 9.39209C0.995156 9.39209 0.65085 9.54944 0.402061 9.80413C0.153272 10.0577 0 10.4075 0 10.7935V13.2045C0 13.5894 0.152161 13.9392 0.398729 14.1927C0.648629 14.4486 0.994046 14.6082 1.37611 14.6082H11.4543V9.39096ZM27.7553 5.2172H1.40111C1.0121 5.2172 0.660409 5.05866 0.405971 4.80272C0.154925 4.54906 0 4.20026 0 3.81409V1.40311C0 1.01581 0.156056 0.665881 0.408232 0.412212C0.662671 0.157411 1.01323 0 1.40111 0H27.7553C28.1443 0 28.4971 0.158543 28.7504 0.415609C29.0015 0.669279 29.1564 1.01807 29.1564 1.40311V3.81409C29.1564 4.19913 29.0015 4.54792 28.7504 4.80159C28.496 5.05866 28.1443 5.2172 27.7553 5.2172Z" fill="#CC0000"/>
<path id="path835" fill-rule="evenodd" clip-rule="evenodd" d="M88.7593 0.000854492H87.181C85.1622 0.000854492 85.0348 0.22475 84.8788 0.576744L81.755 8.19253C80.7138 10.72 79.6396 13.4401 79.2299 14.8481C78.851 13.4401 78.1579 11.5521 76.7059 8.06443L73.5832 0.576744C73.3932 0.128954 72.6045 0.000854492 70.8999 0.000854492H69.1337C67.3983 0.000854492 67.0501 0.161257 67.0501 0.513252V23.4876C67.0501 23.9042 67.3983 24 69.1963 24H70.175C71.9411 24 72.4453 23.9042 72.4453 23.4876V9.8567H72.5727C72.5727 9.8567 72.7298 10.4961 72.9835 11.072L76.5806 19.6156C76.7377 19.9999 76.9277 20.1615 78.5994 20.1615H79.6725C81.375 20.1615 81.5024 20.0322 81.6606 19.6156L84.9403 11.3928C85.2566 10.6242 85.4774 9.8567 85.4774 9.8567H85.6037V23.4876C85.6037 23.9042 85.9497 24 87.8125 24H88.7593C90.4948 24 91 23.9042 91 23.4876V0.513252C91 0.161257 90.4948 0.000854492 88.7593 0.000854492ZM61.8436 0.513252C61.8436 0.161257 61.3559 0.000854492 59.6819 0.000854492H58.7066C56.9403 0.000854492 56.6371 0.161257 56.6371 0.513252V23.4876C56.6371 23.9042 56.9403 24 58.7066 24H59.6819C61.357 24 61.8436 23.9042 61.8436 23.4876V0.513252ZM52.9308 0.000854492C53.4141 0.000854492 53.5132 0.0654611 53.5132 1.76083V3.32921C53.5132 4.96108 53.3837 5.15267 52.9308 5.15267H47.4289V23.4876C47.4289 23.9042 46.9107 24 45.0666 24H44.0955C42.2188 24 41.8954 23.9042 41.8954 23.4876V5.15267H36.3935C35.9396 5.15267 35.8111 5.02457 35.8111 3.32921V1.76083C35.8111 0.000854492 35.908 0.000854492 36.3935 0.000854492H52.9308Z" fill="#004C97"/>
</g>
</g>
<defs>
<clipPath id="clip0_2022_650">
<rect width="91" height="24" fill="white"/>
</clipPath>
</defs>
</svg>
