<svg width="90" height="32" viewBox="0 0 90 32" fill="none" xmlns="http://www.w3.org/2000/svg">
<g id="vivo_brand" clip-path="url(#clip0_2022_659)">
<g id="Capa 2">
<g id="Layer 1">
<path id="Vector" d="M31.545 0.43777C33.6606 -0.321748 36.2282 0.721144 37.114 2.69126C37.4536 3.40244 37.5786 4.18875 37.4752 4.96306C37.3718 5.73738 37.044 6.46948 36.5281 7.07825C36.0122 7.68702 35.3283 8.14869 34.5523 8.41213C33.7763 8.67557 32.9384 8.73048 32.1314 8.57078C31.2224 8.39032 30.3956 7.94553 29.7666 7.29854C29.1376 6.65155 28.7378 5.83469 28.623 4.96211C28.3156 3.04789 29.6147 1.05849 31.545 0.43777Z" fill="#78009D"/>
<path id="Vector_2" d="M1.97121 11.4875C3.14814 11.0865 4.29655 10.1843 5.61398 10.5371C6.02774 10.646 6.4089 10.845 6.72707 11.1181C7.04524 11.3912 7.29161 11.7309 7.44655 12.1101C9.33615 15.7072 11.2095 19.312 13.1072 22.9053C15.007 19.2291 16.9617 15.58 18.8615 11.9038C19.3665 10.861 20.6941 10.2152 21.873 10.5294C22.5816 10.7222 23.2271 11.0846 23.9092 11.3487C24.5914 11.6128 25.3346 11.8691 25.7418 12.4725C26.0206 12.8443 26.18 13.2844 26.201 13.7399C26.2219 14.1954 26.1035 14.6469 25.8599 15.0402C22.8626 20.1101 19.8389 25.1646 16.8395 30.2306C16.5053 30.8429 15.9641 31.3315 15.3022 31.6185C14.3635 32.0041 13.3169 31.7978 12.3253 31.8556C11.7532 31.8883 11.1828 31.7686 10.679 31.51C10.1751 31.2514 9.75786 30.8642 9.47461 30.3925C6.56284 25.509 3.65379 20.6184 0.747459 15.7207C0.354473 15.0826 -0.0792379 14.4002 0.0123911 13.6291C0.0571874 12.5824 0.979586 11.8017 1.97121 11.4875Z" fill="#78009D"/>
<path id="Vector_3" d="M42.6891 11.1346C43.6543 10.697 44.764 10.1515 45.833 10.645C47.073 11.0845 47.4355 12.3799 47.9954 13.3881C49.6916 16.5418 51.2798 19.7495 53.0086 22.884C54.909 19.2252 56.823 15.5696 58.7506 11.9173C59.2454 10.857 60.5954 10.2055 61.7866 10.5351C62.485 10.7414 63.1244 11.0864 63.7984 11.3486C64.4215 11.6185 65.128 11.8247 65.5576 12.3664C65.872 12.7463 66.0579 13.2072 66.0909 13.6887C66.124 14.1702 66.0027 14.65 65.7429 15.0652C62.7144 20.1569 59.6859 25.2487 56.6574 30.3404C56.3881 30.813 55.985 31.2053 55.4933 31.4733C55.0017 31.7412 54.4409 31.8743 53.8739 31.8575C52.752 31.7958 51.5262 32.0638 50.5081 31.4835C49.8708 31.1789 49.4574 30.6083 49.1316 30.03C46.19 25.0604 43.2409 20.0952 40.2843 15.1346C40.0265 14.7512 39.8895 14.3062 39.8895 13.8517C39.8895 13.3972 40.0265 12.9522 40.2843 12.5688C40.7975 11.7438 41.8481 11.5414 42.6891 11.1346Z" fill="#78009D"/>
<path id="Vector_4" d="M76.3821 10.7182C78.7135 10.3327 81.1895 10.5582 83.3337 11.5414C85.7722 12.6257 87.7222 14.4981 88.8329 16.8218C89.9437 19.1456 90.1423 21.7683 89.3932 24.2183C88.6441 26.6683 86.9963 28.7849 84.7462 30.1876C82.496 31.5903 79.7911 32.1871 77.1178 31.8705C74.4445 31.554 71.9781 30.3449 70.1622 28.4608C68.3463 26.5766 67.2999 24.1409 67.2112 21.5917C67.1226 19.0425 67.9974 16.547 69.6785 14.5538C71.3596 12.5606 73.7365 11.2006 76.3821 10.7182ZM77.9072 17.1163C77.229 17.2102 76.5826 17.4503 76.0178 17.8179C75.453 18.1855 74.9848 18.6709 74.6493 19.2368C74.2584 19.892 74.0597 20.6343 74.074 21.3867C74.0882 22.1391 74.3148 22.8742 74.7303 23.5158C75.1458 24.1573 75.735 24.6819 76.4368 25.0352C77.1387 25.3885 77.9275 25.5576 78.7217 25.525C81.0796 25.5019 83.1443 23.4045 82.9631 21.1664C82.9875 18.7452 80.4117 16.698 77.9072 17.1163Z" fill="#78009D"/>
<path id="Vector_5" d="M31.3352 10.8127C32.3269 10.7413 33.3226 10.7972 34.3162 10.7799C35.7884 10.7356 37.0101 12.0503 36.9796 13.4093C37.0101 18.5563 36.9796 23.7033 36.9938 28.8522C37.0366 29.816 36.6619 30.8435 35.7721 31.3948C34.754 32.0946 33.4386 31.7804 32.2719 31.8536C31.7183 31.9129 31.1586 31.8166 30.6625 31.5766C30.1664 31.3366 29.7559 30.9637 29.4823 30.5042C29.0751 29.8315 29.1423 29.0334 29.1402 28.2874C29.1402 23.3409 29.1402 18.3931 29.1402 13.444C29.1254 12.8321 29.3365 12.2345 29.7372 11.7541C30.1379 11.2738 30.7031 10.9408 31.3352 10.8127Z" fill="#78009D"/>
</g>
</g>
</g>
<defs>
<clipPath id="clip0_2022_659">
<rect width="90" height="32" fill="white"/>
</clipPath>
</defs>
</svg>
